<svg width="126" height="101" viewBox="0 0 126 101" fill="none" xmlns="http://www.w3.org/2000/svg">
<path id="Vector" d="M26.2349 0.0507812C19.0579 0.0507812 13.7489 6.33478 13.9859 13.1498C14.2139 19.6958 13.9179 28.1758 11.7829 35.0898C9.64286 42.0258 6.02286 46.4088 0.109863 46.9728V53.3598C6.02286 53.9228 9.64286 58.3068 11.7829 65.2428C13.9179 72.1568 14.2129 80.6368 13.9859 87.1828C13.7479 93.9978 19.0579 100.281 26.2349 100.281H99.7749C106.952 100.281 112.261 93.9968 112.024 87.1828C111.796 80.6368 112.092 72.1568 114.226 65.2428C116.366 58.3078 119.977 53.9238 125.89 53.3598V46.9728C119.977 46.4098 116.367 42.0258 114.226 35.0898C112.092 28.1758 111.796 19.6958 112.024 13.1498C112.261 6.33478 106.952 0.0507812 99.7739 0.0507812H26.2349ZM84.3489 61.7368C84.3489 71.1208 77.3469 76.8098 65.7279 76.8098H44.3059C44.1756 76.8098 44.0508 76.758 43.9587 76.666C43.8666 76.5739 43.8149 76.449 43.8149 76.3188V23.9928C43.8147 23.9282 43.8273 23.8643 43.852 23.8046C43.8766 23.7449 43.9127 23.6906 43.9583 23.6449C44.0039 23.5992 44.0581 23.563 44.1177 23.5383C44.1774 23.5135 44.2413 23.5008 44.3059 23.5008H65.6149C75.3039 23.5008 81.6619 28.7468 81.6619 36.8008C81.6619 42.4538 77.3849 47.5138 71.9349 48.4008V48.6968C79.3529 49.5098 84.3489 54.6448 84.3489 61.7368ZM63.5709 30.2618H52.2929V46.1838H61.7929C69.1349 46.1838 73.1839 43.2288 73.1839 37.9458C73.1839 32.9958 69.7029 30.2618 63.5709 30.2618ZM52.2929 52.5018V70.0498H63.9879C71.6329 70.0498 75.6829 66.9838 75.6829 61.2198C75.6829 55.4568 71.5199 52.5018 63.4959 52.5018H52.2929Z" fill="#7952B3"/>
</svg>
