<svg width="129" height="128" viewBox="0 0 129 128" fill="none" xmlns="http://www.w3.org/2000/svg">
<g id="Logos/c-plain">
<path id="Vector" d="M118 33.5L118.3 33.3C117.7 32.2 116.8 31.2 115.9 30.7L67.6 2.90001C66.8 2.40001 65.7 2.20001 64.5 2.20001C63.3 2.20001 62.2 2.50001 61.4 2.90001L13.4 30.8C11.7 31.8 10.5 34.3 10.5 36.2V91.9C10.5 93 10.7 94.2 11.4 95.3L11.2 95.4C11.7 96.2 12.4 96.9 13.1 97.3L61.3 125.2C62.1 125.7 63.2 125.9 64.4 125.9C65.6 125.9 66.7 125.6 67.5 125.2L115.5 97.3C117.2 96.3 118.4 93.8 118.4 91.9V36.1C118.5 35.3 118.4 34.4 118 33.5ZM64.5 88.5C73.6 88.5 81.6 83.5 85.8 76.1L98.7 83.7C91.9 95.5 79.1 103.5 64.5 103.5C42.7 103.5 25 85.8 25 64C25 42.2 42.7 24.5 64.5 24.5C79.2 24.5 92 32.6 98.8 44.5L85.8 52C81.6 44.5 73.6 39.5 64.5 39.5C51 39.5 40 50.5 40 64C40 77.5 51 88.5 64.5 88.5Z" fill="#03599C"/>
</g>
</svg>
