<svg width="129" height="128" viewBox="0 0 129 128" fill="none" xmlns="http://www.w3.org/2000/svg">
<g id="Logos/css3-original-wordmark">
<path id="Vector" d="M89.734 5.85603H82.35L90.029 14.189V18.156H74.213V13.511H81.891L74.213 5.17803V1.20703H89.734V5.85603ZM71.077 5.85603H63.693L71.372 14.189V18.156H55.555V13.511H63.234L55.555 5.17803V1.20703H71.077V5.85603ZM52.603 6.04603H44.635V13.317H52.603V18.156H38.971V1.20703H52.603V6.04603Z" fill="#131313"/>
<path id="Vector_2" d="M28.1131 116.706L20.0161 25.8926H108.983L100.879 116.691L64.4451 126.793L28.1131 116.706Z" fill="#1572B6"/>
<path id="Vector_3" d="M64.501 119.072L93.94 110.91L100.866 33.3193H64.501V119.072Z" fill="#33A9DC"/>
<path id="Vector_4" d="M64.5 66.22H79.238L80.257 54.815H64.5V43.677H92.429L92.162 46.665L89.425 77.357H64.5V66.22Z" fill="white"/>
<path id="Vector_5" d="M64.5671 95.1458L64.5181 95.1598L52.1141 91.8098L51.3201 82.9268H40.1411L41.7021 100.415L64.5161 106.748L64.5681 106.733V95.1458H64.5671Z" fill="#EBEBEB"/>
<path id="Vector_6" d="M78.2918 76.8857L76.9498 91.8017L64.5278 95.1547V106.743L87.3608 100.415L87.5288 98.5327L89.4668 76.8857H78.2918Z" fill="white"/>
<path id="Vector_7" d="M64.539 43.677V54.814H37.636L37.412 52.311L36.905 46.665L36.638 43.677H64.539ZM64.5 66.221V77.359H52.253L52.03 74.856L51.522 69.209L51.255 66.221H64.5Z" fill="#EBEBEB"/>
</g>
</svg>
