<svg width="129" height="128" viewBox="0 0 129 128" fill="none" xmlns="http://www.w3.org/2000/svg">
<g id="Logos/dart-original-wordmark">
<path id="Vector" d="M65.8 55.4C68.6 58 70 61.5 70 66C70 70.5 68.6 74.1 65.9 76.8C63.2 79.4 59 80.8 53.5 80.8H43.7V51.7H53.8C59 51.7 63 52.9 65.8 55.4ZM61 72.7C62.6 71.2 63.4 69 63.4 66.1C63.4 63.2 62.6 61 61 59.4C59.4 57.9 56.9 57 53.6 57H49.8V75H54C57.1 75 59.4 74.2 61 72.7ZM93.1 80.8H87.3V78C85.6 80 83.7 81 81.3 81C78.9 81 76.9 80.3 75.3 78.9C73.7 77.5 72.9 75.7 72.9 73.4C72.9 71.1 73.7 69.4 75.4 68.3C77.1 67.2 79.4 66.6 82.3 66.6H86.9V66.4C86.9 64 85.7 62.8 83.1 62.8C82 62.8 80.9 63 79.7 63.4C78.5 63.8 77.5 64.4 76.6 65L73.8 60.9C76.8 58.7 80.1 57.7 83.9 57.7C86.6 57.7 88.8 58.4 90.5 59.8C92.2 61.2 93 63.3 93 66.3V80.8H93.1ZM86.8 72.2V71.3H82.9C80.4 71.3 79.1 72 79.1 73.5C79.1 74.3 79.4 74.9 80 75.3C80.6 75.7 81.4 75.9 82.6 75.9C83.7 75.9 84.7 75.6 85.5 74.9C86.4 74.2 86.8 73.3 86.8 72.2ZM109.6 63.8C107.7 63.8 106.2 64.4 105.3 65.8C104.4 67.1 103.8 68.9 103.8 71.1V80.9H97.6V58.4H103.8V61.3C104.6 60.4 105.8 59.6 107 59C108.2 58.4 109.6 58 110.9 58V63.9L109.6 63.8ZM120.9 62.9V72.8C120.9 73.7 121.1 74.3 121.6 74.8C122 75.3 122.6 75.5 123.2 75.5C124.4 75.5 125.4 75 126.2 73.9L128.5 78.3C126.6 80.1 124.5 81 122.4 81C120.2 81 118.4 80.3 116.9 78.9C115.4 77.5 114.7 75.5 114.7 73.1V51.7H120.9V58H127.5L124.1 63L120.9 62.9Z" fill="#231F20"/>
<path id="Vector_2" d="M9.8001 56.2996L7.6001 54.0996V70.4996C7.6001 70.7996 7.7001 71.1996 7.8001 71.5996L25.1001 77.6996L29.4001 75.7996L9.8001 56.2996Z" fill="#00C4B3"/>
<path id="Vector_3" d="M29.4 75.9L25.1 77.8L7.8 71.7C8.1 73 8.8 74.4 9.6 75.2L15.2 80.8H27.7L29.4 75.9Z" fill="#22D3C5"/>
<path id="Vector_4" d="M1.00014 64.1996C0.400144 64.7996 0.700144 65.9996 1.60014 66.9996L5.50014 70.8996L7.90014 71.7996C7.80014 71.3996 7.70014 70.9996 7.70014 70.6996V69.9996L7.60014 54.0996" fill="#0075C9"/>
<path id="Vector_5" d="M29.4001 75.8996L31.3001 71.5996L25.2001 54.2996C24.8001 54.1996 24.4001 54.0996 24.1001 54.0996H7.6001" fill="#0075C9"/>
<path id="Vector_6" d="M29.4 75.9L34.1 74.4V61.5L28.7 56.1C27.9 55.3 26.5 54.6 25.2 54.3L31.3 71.6" fill="#00A8E1"/>
<path id="Vector_7" d="M24.4 51.9L20.4 48C19.5 47.1 18.3 46.8 17.7 47.4L7.6 54.1H24.1C24.4 54.1 24.8 54.2 25.2 54.3L24.4 51.9Z" fill="#00C4B3"/>
</g>
</svg>
