<svg width="129" height="128" viewBox="0 0 129 128" fill="none" xmlns="http://www.w3.org/2000/svg">
<g id="Logos/django-plain-wordmark">
<path id="Vector" d="M15.591 41.64H22.591V74.043C19.001 74.725 16.364 74.998 13.501 74.998C4.955 74.998 0.5 71.134 0.5 63.724C0.5 56.588 5.228 51.952 12.546 51.952C13.682 51.952 14.546 52.042 15.591 52.315V41.64ZM15.591 57.95C14.773 57.678 14.091 57.587 13.228 57.587C9.682 57.587 7.637 59.769 7.637 63.587C7.637 67.314 9.591 69.36 13.182 69.36C13.955 69.36 14.592 69.314 15.592 69.178L15.591 57.95Z" fill="#092E20"/>
<path id="Vector_2" d="M33.727 52.45V68.678C33.727 74.268 33.318 76.95 32.091 79.268C30.954 81.497 29.454 82.905 26.363 84.451L19.863 81.36C22.954 79.905 24.453 78.633 25.408 76.678C26.408 74.678 26.728 72.36 26.728 66.268V52.45H33.727ZM26.727 41.677H33.727V48.859H26.727V41.677ZM37.956 54.041C41.046 52.587 44.001 51.951 47.229 51.951C50.819 51.951 53.183 52.905 54.229 54.769C54.819 55.814 55.001 57.178 55.001 60.087V74.314C51.865 74.769 47.911 75.087 45.001 75.087C39.138 75.087 36.501 73.041 36.501 68.496C36.501 63.586 40.001 61.314 48.592 60.586V59.041C48.592 57.768 47.956 57.314 46.183 57.314C43.593 57.314 40.683 58.041 37.955 59.451V54.041H37.956ZM48.91 65.178C44.274 65.632 42.774 66.36 42.774 68.178C42.774 69.541 43.638 70.178 45.547 70.178C46.592 70.178 47.547 70.088 48.91 69.86V65.178ZM58.412 53.541C62.548 52.451 65.957 51.951 69.412 51.951C73.003 51.951 75.594 52.768 77.14 54.36C78.595 55.86 79.049 57.495 79.049 60.996V74.723H72.049V61.27C72.049 58.588 71.139 57.588 68.639 57.588C67.685 57.588 66.822 57.678 65.412 58.088V74.724H58.412V53.541ZM81.769 78.541C84.224 79.814 86.678 80.405 89.269 80.405C93.859 80.405 95.814 78.541 95.814 74.086V73.95C94.451 74.632 93.087 74.905 91.269 74.905C85.132 74.905 81.223 70.859 81.223 64.45C81.223 56.495 86.996 51.995 97.223 51.995C100.223 51.995 102.996 52.313 106.36 52.995L103.963 58.045C102.099 57.681 103.813 57.995 102.405 57.859V58.587L102.495 61.541L102.541 65.359C102.587 66.314 102.587 67.269 102.632 68.223V70.133C102.632 76.133 102.132 78.95 100.632 81.268C98.45 84.678 94.678 86.36 89.314 86.36C86.586 86.36 84.224 85.95 81.768 84.996V78.54L81.769 78.541ZM95.679 57.631H94.951C93.588 57.586 91.997 57.949 90.905 58.631C89.224 59.586 88.36 61.313 88.36 63.768C88.36 67.268 90.087 69.268 93.178 69.268C94.133 69.268 94.906 69.086 95.814 68.814V66.404C95.814 65.587 95.769 64.677 95.769 63.723L95.724 60.496L95.678 58.177V57.632L95.679 57.631ZM117.227 51.86C124.227 51.86 128.5 56.269 128.5 63.405C128.5 70.724 124.046 75.315 116.954 75.315C109.954 75.315 105.636 70.905 105.636 63.815C105.636 56.45 110.091 51.859 117.227 51.859V51.86ZM117.09 69.678C119.772 69.678 121.364 67.45 121.364 63.587C121.364 59.769 119.818 57.496 117.137 57.496C114.363 57.496 112.772 59.724 112.772 63.586C112.772 67.451 114.363 69.678 117.09 69.678Z" fill="#092E20"/>
</g>
</svg>
