<svg width="129" height="128" viewBox="0 0 129 128" fill="none" xmlns="http://www.w3.org/2000/svg">
<g id="Logos/html5-original-wordmark">
<path id="Vector" d="M28.354 116.354L20.311 26.1429H108.689L100.638 116.34L64.446 126.373L28.354 116.354Z" fill="#E44D26"/>
<path id="Vector_2" d="M64.5 118.704L93.744 110.596L100.625 33.52H64.5V118.704Z" fill="#F16529"/>
<path id="Vector_3" d="M64.5 66.978H49.859L48.849 55.647H64.5V44.583H36.757L37.021 47.552L39.741 78.041H64.5V66.978ZM64.5 95.711L64.451 95.724L52.13 92.396L51.342 83.573H40.235L41.785 100.945L64.449 107.237L64.5 107.222V95.711Z" fill="#EBEBEB"/>
<path id="Vector_4" d="M28.534 1.62695H34.156V7.18295H39.3V1.62695H44.923V18.449H39.3V12.816H34.157V18.449H28.534V1.62695ZM52.316 7.20595H47.366V1.62695H62.891V7.20595H57.939V18.449H52.316V7.20595ZM65.355 1.62695H71.217L74.824 7.53795L78.427 1.62695H84.292V18.449H78.691V10.111L74.824 16.092H74.726L70.856 10.111V18.449H65.354V1.62695H65.355ZM87.091 1.62695H92.715V12.889H100.622V18.45H87.091V1.62695Z" fill="black"/>
<path id="Vector_5" d="M64.462 66.978V78.041H78.086L76.802 92.39L64.462 95.721V107.231L87.144 100.945L87.31 99.075L89.91 69.948L90.18 66.978H87.198H64.462ZM64.462 44.583V55.647H91.187L91.408 53.16L91.913 47.552L92.178 44.583H64.462Z" fill="white"/>
</g>
</svg>
