<svg width="129" height="128" viewBox="0 0 129 128" fill="none" xmlns="http://www.w3.org/2000/svg">
<g id="Logos/javascript-original">
<path id="Vector" d="M1.908 1.40796H127.092V126.593H1.908V1.40796Z" fill="#F0DB4F"/>
<path id="Vector_2" d="M116.847 96.736C115.93 91.025 112.206 86.228 101.175 81.755C97.343 79.994 93.071 78.733 91.798 75.829C91.346 74.139 91.286 73.187 91.572 72.164C92.393 68.844 96.356 67.809 99.497 68.761C101.52 69.439 103.435 70.998 104.59 73.485C109.992 69.987 109.981 70.01 113.753 67.606C112.372 65.465 111.635 64.477 110.731 63.561C107.482 59.932 103.055 58.063 95.975 58.206L92.287 58.683C88.753 59.576 85.385 61.431 83.41 63.918C77.484 70.642 79.174 82.41 86.385 87.253C93.489 92.585 103.925 93.798 105.258 98.784C106.555 104.888 100.772 106.864 95.024 106.162C90.788 105.281 88.432 103.128 85.885 99.213C81.197 101.926 81.197 101.926 76.377 104.698C77.52 107.197 78.721 108.328 80.637 110.493C89.705 119.691 112.397 119.239 116.467 105.317C116.632 104.839 117.728 101.651 116.847 96.736ZM69.962 58.943H58.253L58.205 89.215C58.205 95.653 58.538 101.555 57.491 103.364C55.778 106.922 51.339 106.481 49.316 105.791C47.257 104.779 46.21 103.34 44.997 101.306C44.664 100.722 44.414 100.27 44.33 100.235L34.81 106.065C36.393 109.314 38.725 112.134 41.712 113.966C46.174 116.644 52.171 117.465 58.443 116.025C62.525 114.836 66.047 112.373 67.891 108.624C70.557 103.709 69.985 97.76 69.961 91.18C70.021 80.445 69.962 69.712 69.962 58.943Z" fill="#323330"/>
</g>
</svg>
