<svg width="107" height="124" viewBox="0 0 107 124" fill="none" xmlns="http://www.w3.org/2000/svg">
<rect width="107" height="124" fill="#A68C8C"/>
<g id="Main">
<rect width="1440" height="2862" transform="translate(-1101 -693)" fill="#D3EFEA"/>
<g id="All tests">
<g id="Frame 1">
<g id="Test card">
<g id="Rectangle 3978" filter="url(#filter0_d_2107_124)">
<rect x="-71" y="-26" width="250" height="250" rx="16" fill="white"/>
</g>
<g id="Frame 1_2">
<g id="Logos/python-original-wordmark">
<g id="Group">
<path id="Vector" fill-rule="evenodd" clip-rule="evenodd" d="M41.334 21.0169C45.09 21.0169 48.846 21.0749 52.597 20.9769C53.592 20.9509 55.377 21.7739 55.297 19.7059C55.236 18.0229 53.675 18.6319 52.729 18.6169C48.492 18.5499 44.241 18.3889 40.021 18.6539C37.018 18.8409 36.133 17.7009 36.51 14.9469C36.64 13.9969 36.515 13.0129 36.535 12.0449C36.667 5.59894 38.225 3.40494 44.477 1.81494C51.365 0.0649396 58.414 0.12294 65.283 1.63094C71.458 2.98694 74.023 7.79094 73.711 12.2349C73.331 17.6579 73.625 23.1279 73.62 28.5779C73.611 35.4309 70.07 39.0679 63.161 39.1629C57.471 39.2409 51.774 39.3029 46.087 39.1449C39.309 38.9549 34.337 44.5849 34.303 50.9649C34.303 51.4489 34.386 51.9489 34.29 52.4159C33.802 54.7589 35.752 58.5459 33.268 59.2419C29.488 60.3039 25.062 60.3039 21.728 56.9309C20.598 55.7909 19.646 54.5139 19.144 53.0379C16.465 45.1729 16.042 37.2079 18.564 29.2199C20.136 24.2339 24.412 21.1329 29.709 21.0439C33.583 20.9789 37.458 21.0309 41.332 21.0309L41.334 21.0169ZM48.236 9.89694C48.074 7.99394 47.051 6.60494 44.94 6.54694C42.631 6.48694 41.438 7.88294 41.435 10.1549C41.433 12.2609 42.58 13.6099 44.676 13.6709C46.979 13.7379 48.094 12.3109 48.236 9.89694Z" fill="#386F9F"/>
<path id="Vector_2" fill-rule="evenodd" clip-rule="evenodd" d="M70.324 59.5719C66.084 59.5719 61.842 59.5349 57.602 59.6019C56.647 59.6139 55.045 59.0099 54.995 60.6429C54.939 62.4949 56.658 62.0129 57.75 62.0239C61.99 62.0769 66.234 62.1219 70.473 62.0039C72.651 61.9439 73.54 62.3609 73.703 64.9289C74.44 76.5539 69.395 77.5589 60.09 79.6739C54.752 80.8869 49.029 80.2439 43.765 77.8859C39.412 75.9389 36.741 73.1329 37.078 67.8789C37.412 62.6929 37.468 57.4399 37.069 52.2589C36.589 46.0059 40.479 41.4069 48.044 41.4049C53.134 41.4039 58.258 41.0159 63.304 41.4799C70.519 42.1419 76.176 35.8879 76.424 28.6159C76.434 28.3749 76.372 28.1159 76.434 27.8919C77.07 25.6569 74.808 22.3349 77.834 21.2059C82.407 19.5009 87.564 21.2929 89.9 24.7629C92.845 29.1319 93.243 34.2729 93.719 39.2929C94.234 44.7039 92.716 49.7979 90.443 54.6789C88.899 57.9889 86.303 59.5889 82.686 59.5939C78.566 59.5969 74.447 59.5939 70.326 59.5939C70.324 59.5859 70.324 59.5789 70.324 59.5719ZM69.22 70.3719C68.767 68.3059 67.835 66.8959 65.435 66.8369C62.939 66.7769 62.295 68.6439 62.308 70.3109C62.322 72.0829 62.816 74.2629 65.518 74.0589C67.764 73.8869 68.859 72.4959 69.22 70.3719Z" fill="#FFCF46"/>
<path id="Vector_3" fill-rule="evenodd" clip-rule="evenodd" d="M3.629 112.849C3.629 115.431 3.746 117.849 3.574 120.246C3.5 121.28 4.64 123.226 2.471 123.224C0.559002 123.224 0.0680024 121.702 0.129002 119.863C0.246002 116.353 0.163003 112.836 0.163003 109.323V101.325C0.163003 96.505 1.456 94.873 6.066 93.875C10.352 92.943 13.72 94.386 15.452 98.138C17.184 101.891 17.318 105.758 15.585 109.576C13.877 113.338 10.731 114.742 6.701 113.627C5.783 113.377 4.856 113.16 3.629 112.849ZM3.629 103.401C3.629 104.731 3.809 106.087 3.592 107.381C3.09 110.372 5 111.109 7.252 111.641C9.479 112.167 11.006 111.22 11.899 109.258C13.4 105.968 13.652 102.575 12.512 99.096C11.5 96.004 9.163 95.642 6.435 96.026C3.741 96.409 3.376 98.241 3.611 100.506C3.711 101.461 3.629 102.436 3.629 103.401ZM32.616 112.689C30.771 113.169 29.169 113.681 27.529 113.989C23.939 114.66 21.281 112.689 20.346 109.095C19.186 104.647 20.168 100.216 20.198 95.778C20.211 93.755 22.083 94.544 23.378 93.46C23.378 98.21 23.396 102.31 23.372 106.407C23.359 108.465 23.891 110.157 25.837 111.242C27.985 112.44 29.747 111.299 31.617 110.53C32.957 109.979 32.79 108.854 32.792 107.784C32.802 103.912 32.791 100.044 32.804 96.172C32.806 95.217 32.707 94.05 34.117 94.097C35.374 94.138 35.921 94.885 35.9 96.255C35.809 102.662 35.99 109.078 35.73 115.476C35.533 120.314 32.12 123.269 27.21 123.486C26.475 123.517 25.705 123.585 25.43 122.673C25.011 121.269 26.148 121.534 26.895 121.295C32.296 119.577 33.002 118.551 32.616 112.689ZM55.44 96.064C56.869 95.389 57.69 94.771 58.593 94.604C63.66 93.667 67.543 94.024 67.533 100.849C67.526 104.364 67.535 107.88 67.526 111.394C67.524 112.378 67.587 113.336 66.12 113.421C64.573 113.513 64.233 112.628 64.24 111.415C64.258 108.028 64.35 104.641 64.347 101.255C64.345 98.625 63.808 96.297 60.463 96.305C57.529 96.31 55.451 98.5 55.436 101.522C55.4192 104.793 55.4202 108.065 55.439 111.336C55.442 112.498 55.467 113.517 53.787 113.421C52.274 113.331 52.46 112.311 52.46 111.372C52.45 102.772 52.492 94.163 52.419 85.557C52.406 84.049 53.001 83.113 54.339 83.049C56.227 82.962 55.362 84.613 55.39 85.441C55.513 88.812 55.44 92.191 55.44 96.064ZM71.43 103.775C71.239 97.06 74.424 93.475 80.19 93.683C83.084 93.789 85.255 95.073 86.656 97.573C89.131 101.995 88.796 106.419 86.118 110.56C84.278 113.404 81.448 114.745 77.998 114.013C74.596 113.293 71.932 110.23 71.45 106.66C71.322 105.715 71.43 104.736 71.43 103.775ZM84.75 103.932C84.598 102.76 84.625 101.126 84.137 99.668C83.47 97.668 82.254 96.058 79.773 95.948C77.27 95.84 76.021 97.303 75.186 99.328C73.875 102.507 73.96 105.699 75.38 108.821C76.292 110.832 77.7 112.304 80.14 111.896C82.543 111.495 83.961 109.92 84.452 107.583C84.675 106.524 84.639 105.415 84.75 103.933V103.932ZM91.757 104.827C91.757 103.615 91.734 102.405 91.761 101.199C91.817 98.874 91.076 96.298 94.211 95.11C97.801 93.754 101.359 92.738 104.973 94.837C106.325 95.623 106.823 97.051 106.837 98.567C106.874 102.798 106.818 107.031 106.875 111.262C106.895 112.738 106.507 113.476 104.848 113.436C103.03 113.393 103.413 112.153 103.425 111.163C103.468 107.783 103.703 104.406 103.639 101.031C103.555 96.781 101.223 95.048 97.25 96.091C95.602 96.525 94.572 97.325 94.653 99.365C94.814 103.347 94.69 107.343 94.705 111.332C94.709 112.488 94.726 113.512 93.058 113.415C91.53 113.327 91.78 112.27 91.768 111.353C91.74 109.177 91.76 107 91.757 104.827ZM48.189 95.403C47.939 95.699 47.729 96.163 47.509 96.167C43.545 96.222 44.645 99.181 44.543 101.376C44.446 103.421 44.543 105.476 44.514 107.527C44.484 109.565 44.661 111.459 47.141 112C47.852 112.154 48.176 112.564 48.028 113.274C47.865 114.058 47.24 114.027 46.621 114.019C43.771 113.969 41.658 111.954 41.574 109.004C41.488 105.99 41.605 102.969 41.534 99.958C41.497 98.528 42.24 96.703 39.934 96.136C39.681 96.075 39.591 95.358 39.426 94.949C42.502 93.984 41.226 91.331 41.648 89.318C41.848 88.365 42.753 88.104 43.608 88.023C44.473 87.941 44.48 88.641 44.508 89.226C44.622 91.546 43.421 94.651 47.692 94.482C47.835 94.477 48.002 95.044 48.189 95.402V95.403Z" fill="#386F9F"/>
</g>
</g>
</g>
</g>
</g>
</g>
</g>
<defs>
<filter id="filter0_d_2107_124" x="-75" y="-26" width="258" height="258" filterUnits="userSpaceOnUse" color-interpolation-filters="sRGB">
<feFlood flood-opacity="0" result="BackgroundImageFix"/>
<feColorMatrix in="SourceAlpha" type="matrix" values="0 0 0 0 0 0 0 0 0 0 0 0 0 0 0 0 0 0 127 0" result="hardAlpha"/>
<feOffset dy="4"/>
<feGaussianBlur stdDeviation="2"/>
<feComposite in2="hardAlpha" operator="out"/>
<feColorMatrix type="matrix" values="0 0 0 0 0 0 0 0 0 0 0 0 0 0 0 0 0 0 0.25 0"/>
<feBlend mode="normal" in2="BackgroundImageFix" result="effect1_dropShadow_2107_124"/>
<feBlend mode="normal" in="SourceGraphic" in2="effect1_dropShadow_2107_124" result="shape"/>
</filter>
</defs>
</svg>
